# xmcd
#
# Track frame offsets:
# 182
# 16517
# 37520
# 52357
# 69317
# 84815
# 99195
# 120830
# 135067
# 153557
# 166685
# 179422
# 196555
# 209507
#
# Disc length: 3138 seconds
#
#
# Revision: 0
# Processed by: cddbd v1.5.1PL2 Copyright (c) Steve Scherf et al.
# Submitted via: FreeRIP 2.944 
#
DISCID=940c400e
DTITLE=HOMBRES G - HOMBRES G (BALADAS)
DYEAR=1996
DGENRE=BALADAS
TTITLE0=No llorare.
TTITLE1=Sin ti.
TTITLE2=Un par de palabras.
TTITLE3=Te quiero.
TTITLE4=Huellas en la baja mar.
TTITLE5=Tembrando.
TTITLE6=Si no te tengo ati
TTITLE7=Viernes
TTITLE8=Te necesito
TTITLE9=A prender a caer.
TTITLE10=Esta tarde.
TTITLE11=Si alguna vez.
TTITLE12=La primavera.
TTITLE13=Tormenta contigo.
EXTD=LO MEJOR DEL 96
EXTT0=3.37
EXTT1=4.40
EXTT2=3.17
EXTT3=3.46
EXTT4=3.26
EXTT5=3.11
EXTT6=4.48
EXTT7=3.10
EXTT8=4.06
EXTT9=2.55
EXTT10=2.49
EXTT11=3.48
EXTT12=2.52
EXTT13=5.49
PLAYORDER=
